<svg width="120" height="121" viewBox="0 0 120 121" fill="none" xmlns="http://www.w3.org/2000/svg">
<path d="M85.754 76.4419H80.3337L78.4126 74.5894C85.3694 66.5212 89.1927 56.2203 89.1845 45.567C89.1845 36.7465 86.5689 28.1241 81.6685 20.7901C76.7681 13.4562 69.803 7.74006 61.654 4.36461C53.5049 0.989157 44.5379 0.105985 35.8869 1.82677C27.2359 3.54756 19.2895 7.79503 13.0524 14.032C6.81543 20.2691 2.56797 28.2155 0.847176 36.8665C-0.873614 45.5175 0.00955762 54.4845 3.38501 62.6336C6.76046 70.7826 12.4766 77.7477 19.8105 82.6481C27.1445 87.5485 35.7669 90.1641 44.5874 90.1641C55.6337 90.1641 65.7882 86.1161 73.6098 79.3922L75.4623 81.3133V86.7336L109.768 120.97L119.991 110.747L85.754 76.4419ZM44.5874 76.4419C27.5033 76.4419 13.7124 62.6511 13.7124 45.567C13.7124 28.4828 27.5033 14.692 44.5874 14.692C61.6715 14.692 75.4623 28.4828 75.4623 45.567C75.4623 62.6511 61.6715 76.4419 44.5874 76.4419Z" fill="#F1A720"/>
</svg>
